# This file uses centimeters as units for non-parametric coordinates.

g default
v 0.155483 0.083421 -0.060684
v 0.059389 0.083421 -0.098188
v -0.059389 0.083421 -0.098188
v -0.155483 0.083421 -0.060684
v -0.192188 0.083421 0.000000
v -0.155483 0.083421 0.060684
v -0.059389 0.083421 0.098188
v 0.059389 0.083421 0.098188
v 0.155483 0.083421 0.060684
v 0.192188 0.083421 0.000000
v 0.295747 0.174510 -0.115427
v 0.112965 0.174510 -0.186765
v -0.112965 0.174510 -0.186765
v -0.295747 0.174510 -0.115427
v -0.365563 0.174510 0.000000
v -0.295747 0.174510 0.115427
v -0.112965 0.174510 0.186765
v 0.112965 0.174510 0.186765
v 0.295747 0.174510 0.115427
v 0.365563 0.174510 -0.000000
v 0.443126 0.369703 -0.172948
v 0.155483 0.395742 -0.257060
v -0.155483 0.395742 -0.257060
v -0.443126 0.369703 -0.172948
v -0.547734 0.369703 0.000000
v -0.443126 0.369703 0.172948
v -0.155483 0.395742 0.257060
v 0.155483 0.395742 0.257060
v 0.443126 0.369703 0.172947
v 0.547734 0.369703 0.000000
v 0.520926 0.673170 -0.203312
v 0.182782 0.674510 -0.302192
v -0.182782 0.674510 -0.302192
v -0.520926 0.673170 -0.203312
v -0.643899 0.673170 0.000000
v -0.520926 0.673170 0.203312
v -0.182782 0.674510 0.302192
v 0.182782 0.674510 0.302192
v 0.520926 0.673170 0.203312
v 0.643899 0.673170 0.000000
v 0.547734 1.009566 -0.213775
v 0.192188 0.983527 -0.317744
v -0.192188 0.983527 -0.317744
v -0.547734 1.009566 -0.213775
v -0.677036 1.009566 0.000000
v -0.547734 1.009566 0.213775
v -0.192188 0.983527 0.317744
v 0.192188 0.983527 0.317744
v 0.547734 1.009566 0.213775
v 0.677036 1.009566 0.000000
v 0.499809 1.292544 -0.186765
v 0.182782 1.292544 -0.302192
v -0.182782 1.292544 -0.302192
v -0.499809 1.292544 -0.186765
v -0.617798 1.292544 0.000000
v -0.499809 1.292544 0.186765
v -0.182782 1.292544 0.302192
v 0.182782 1.292544 0.302192
v 0.499809 1.292544 0.186765
v 0.617798 1.292544 0.000000
v 0.407061 1.749919 -0.158872
v 0.155483 1.749919 -0.257060
v -0.155483 1.749919 -0.257060
v -0.407061 1.749919 -0.158872
v -0.503155 1.749919 0.000000
v -0.407061 1.749919 0.158872
v -0.155483 1.749919 0.257060
v 0.155483 1.749919 0.257060
v 0.407061 1.749919 0.158872
v 0.503155 1.749919 0.000000
v 0.295747 1.971151 -0.115427
v 0.112965 1.971151 -0.186765
v -0.112965 1.971151 -0.186765
v -0.295747 1.971151 -0.115427
v -0.365563 1.971151 0.000000
v -0.295747 1.971151 0.115427
v -0.112965 1.971151 0.186765
v 0.112965 1.971151 0.186765
v 0.295747 1.971151 0.115427
v 0.365563 1.971151 0.000000
v 0.155483 2.113191 -0.060684
v 0.059389 2.113191 -0.098188
v -0.059389 2.113191 -0.098188
v -0.155483 2.113191 -0.060684
v -0.192188 2.113191 0.000000
v -0.155483 2.113191 0.060684
v -0.059389 2.113191 0.098188
v 0.059389 2.113191 0.098188
v 0.155483 2.113191 0.060684
v 0.192188 2.113191 0.000000
v 0.000000 0.054457 0.000000
v 0.000000 2.162134 0.000000
vt 0.615063 0.019168
vt 0.604950 0.043967
vt 0.343242 0.943029
vt 0.393470 0.948888
vt 0.604950 0.075003
vt 0.285110 0.942712
vt 0.615065 0.099801
vt 0.234445 0.946225
vt 0.630877 0.109203
vt 0.547662 0.115248
vt 0.646690 0.099801
vt 0.531347 0.145143
vt 0.656803 0.075002
vt 0.525537 0.195377
vt 0.656803 0.043966
vt 0.525278 0.253509
vt 0.646688 0.019168
vt 0.528841 0.304171
vt 0.630876 0.009766
vt 0.423349 0.965233
vt 0.354595 0.884516
vt 0.429498 0.895839
vt 0.276206 0.883027
vt 0.200819 0.890536
vt 0.496284 0.061639
vt 0.478262 0.109167
vt 0.467013 0.184081
vt 0.465602 0.262472
vt 0.473186 0.337851
vt 0.477009 0.913908
vt 0.364039 0.813580
vt 0.453823 0.820032
vt 0.271539 0.811250
vt 0.181862 0.812108
vt 0.414431 0.025175
vt 0.402431 0.084917
vt 0.396068 0.174708
vt 0.393829 0.267210
vt 0.394776 0.356886
vt 0.513553 0.832091
vt 0.369849 0.736008
vt 0.463960 0.734573
vt 0.271560 0.733321
vt 0.177763 0.725638
vt 0.319867 0.009778
vt 0.316963 0.074865
vt 0.318490 0.168975
vt 0.315900 0.267266
vt 0.308310 0.361071
vt 0.529044 0.737542
vt 0.371101 0.658633
vt 0.459259 0.660000
vt 0.276050 0.656161
vt 0.188031 0.651630
vt 0.238748 0.023105
vt 0.242393 0.079640
vt 0.241114 0.167799
vt 0.238736 0.262852
vt 0.234292 0.350876
vt 0.515797 0.656410
vt 0.366789 0.542717
vt 0.435699 0.540340
vt 0.287929 0.540879
vt 0.219179 0.534829
vt 0.112778 0.056617
vt 0.122757 0.103318
vt 0.125202 0.172226
vt 0.123442 0.251088
vt 0.117460 0.319844
vt 0.482410 0.530407
vt 0.357915 0.483243
vt 0.408674 0.480465
vt 0.299443 0.482470
vt 0.249013 0.477349
vt 0.050322 0.097478
vt 0.062909 0.130402
vt 0.065737 0.181159
vt 0.065022 0.239631
vt 0.059951 0.290066
vt 0.441610 0.467911
vt 0.543706 0.075829
vt 0.554644 0.100702
vt 0.543628 0.044060
vt 0.554442 0.019134
vt 0.570560 0.009771
vt 0.586723 0.019054
vt 0.597661 0.043926
vt 0.597740 0.075695
vt 0.586925 0.100622
vt 0.570808 0.109984
vt 0.630876 0.059484
vt 0.570684 0.059878
vt 0.045954 0.321514
vt 0.392553 0.427849
vt 0.009766 0.272166
vt 0.217580 0.463321
vt 0.010309 0.146575
vt 0.266963 0.427181
vt 0.103660 0.366125
vt 0.172911 0.520983
vt 0.226732 0.406875
vt 0.132040 0.644015
vt 0.305815 0.424462
vt 0.114374 0.723080
vt 0.401068 0.417604
vt 0.121138 0.818340
vt 0.486873 0.387939
vt 0.150718 0.904174
vt 0.544419 0.336061
vt 0.202540 0.961771
vt 0.572834 0.287705
vt 0.375873 0.990234
vt 0.250867 0.990234
vt 0.572710 0.162699
vt 0.375210 0.436283
vt 0.018444 0.255504
vt 0.021601 0.227045
vt 0.021666 0.193313
vt 0.018760 0.163911
vt 0.283617 0.435876
vt 0.312072 0.439061
vt 0.345804 0.439160
vt 0.359950 0.980162
vt 0.562724 0.271116
vt 0.558975 0.241122
vt 0.558936 0.207173
vt 0.562654 0.178632
vt 0.267466 0.980140
vt 0.297464 0.976421
vt 0.331412 0.976416
vn 0.242184 -0.745853 -0.620524
vn 0.242184 -0.745853 -0.620524
vn 0.242184 -0.745853 -0.620524
vn 0.242184 -0.745853 -0.620524
vn -0.000000 -0.697150 -0.716926
vn -0.000000 -0.697150 -0.716926
vn -0.000000 -0.697150 -0.716926
vn -0.000000 -0.697150 -0.716926
vn -0.242184 -0.745853 -0.620524
vn -0.242184 -0.745853 -0.620524
vn -0.242184 -0.745853 -0.620524
vn -0.242184 -0.745853 -0.620524
vn -0.447724 -0.852178 -0.270807
vn -0.447724 -0.852178 -0.270807
vn -0.447724 -0.852178 -0.270807
vn -0.447724 -0.852178 -0.270807
vn -0.447724 -0.852178 0.270807
vn -0.447724 -0.852177 0.270807
vn -0.447724 -0.852177 0.270807
vn -0.447724 -0.852177 0.270807
vn -0.242184 -0.745853 0.620524
vn -0.242184 -0.745853 0.620524
vn -0.242184 -0.745853 0.620524
vn -0.242184 -0.745853 0.620524
vn 0.000000 -0.697150 0.716925
vn 0.000000 -0.697150 0.716925
vn 0.000000 -0.697150 0.716925
vn 0.000000 -0.697150 0.716925
vn 0.242184 -0.745853 0.620524
vn 0.242184 -0.745853 0.620524
vn 0.242184 -0.745853 0.620524
vn 0.242184 -0.745853 0.620524
vn 0.447724 -0.852177 0.270807
vn 0.447724 -0.852177 0.270807
vn 0.447725 -0.852177 0.270807
vn 0.447724 -0.852177 0.270807
vn 0.447724 -0.852178 -0.270807
vn 0.447724 -0.852177 -0.270807
vn 0.447724 -0.852178 -0.270807
vn 0.447724 -0.852177 -0.270807
vn 0.268907 -0.392584 -0.879527
vn 0.268907 -0.392584 -0.879527
vn 0.268907 -0.392584 -0.879527
vn 0.268907 -0.392584 -0.879527
vn 0.000000 -0.302824 -0.953046
vn 0.000000 -0.302824 -0.953046
vn 0.000000 -0.302824 -0.953046
vn 0.000000 -0.302824 -0.953046
vn -0.268907 -0.392584 -0.879527
vn -0.268907 -0.392584 -0.879526
vn -0.268907 -0.392584 -0.879527
vn -0.268907 -0.392584 -0.879527
vn -0.668621 -0.624014 -0.404417
vn -0.668621 -0.624014 -0.404417
vn -0.668621 -0.624014 -0.404417
vn -0.668621 -0.624014 -0.404417
vn -0.668621 -0.624014 0.404417
vn -0.668621 -0.624014 0.404417
vn -0.668621 -0.624014 0.404417
vn -0.668621 -0.624014 0.404417
vn -0.268906 -0.392584 0.879527
vn -0.268907 -0.392584 0.879527
vn -0.268906 -0.392584 0.879527
vn -0.268907 -0.392584 0.879527
vn 0.000000 -0.302824 0.953046
vn 0.000000 -0.302824 0.953046
vn 0.000000 -0.302824 0.953046
vn 0.000000 -0.302824 0.953046
vn 0.268907 -0.392584 0.879527
vn 0.268907 -0.392584 0.879527
vn 0.268907 -0.392584 0.879527
vn 0.268907 -0.392584 0.879527
vn 0.668621 -0.624014 0.404417
vn 0.668621 -0.624014 0.404417
vn 0.668621 -0.624014 0.404417
vn 0.668621 -0.624014 0.404417
vn 0.668621 -0.624014 -0.404417
vn 0.668621 -0.624014 -0.404417
vn 0.668621 -0.624014 -0.404417
vn 0.668621 -0.624014 -0.404417
vn 0.269586 -0.171531 -0.947576
vn 0.269586 -0.171531 -0.947576
vn 0.269586 -0.171531 -0.947576
vn 0.269586 -0.171531 -0.947576
vn -0.000000 -0.159817 -0.987147
vn -0.000000 -0.159817 -0.987147
vn -0.000000 -0.159817 -0.987147
vn -0.000000 -0.159818 -0.987147
vn -0.269586 -0.171531 -0.947576
vn -0.269586 -0.171531 -0.947576
vn -0.269586 -0.171531 -0.947576
vn -0.269586 -0.171531 -0.947576
vn -0.825836 -0.261698 -0.499509
vn -0.825836 -0.261698 -0.499509
vn -0.825836 -0.261698 -0.499509
vn -0.825836 -0.261698 -0.499509
vn -0.825836 -0.261698 0.499509
vn -0.825836 -0.261698 0.499509
vn -0.825836 -0.261698 0.499509
vn -0.825836 -0.261698 0.499509
vn -0.269585 -0.171531 0.947576
vn -0.269585 -0.171531 0.947576
vn -0.269585 -0.171531 0.947576
vn -0.269585 -0.171531 0.947576
vn 0.000000 -0.159817 0.987147
vn 0.000000 -0.159817 0.987147
vn 0.000000 -0.159818 0.987147
vn 0.000000 -0.159817 0.987147
vn 0.269586 -0.171531 0.947576
vn 0.269586 -0.171531 0.947576
vn 0.269586 -0.171531 0.947576
vn 0.269586 -0.171531 0.947576
vn 0.825836 -0.261698 0.499509
vn 0.825836 -0.261698 0.499509
vn 0.825836 -0.261698 0.499509
vn 0.825836 -0.261698 0.499509
vn 0.825836 -0.261698 -0.499508
vn 0.825836 -0.261698 -0.499508
vn 0.825836 -0.261698 -0.499508
vn 0.825836 -0.261698 -0.499508
vn 0.282035 -0.054434 -0.957859
vn 0.282035 -0.054434 -0.957859
vn 0.282035 -0.054434 -0.957859
vn 0.282035 -0.054434 -0.957859
vn -0.000000 -0.050262 -0.998736
vn -0.000000 -0.050262 -0.998736
vn -0.000000 -0.050262 -0.998736
vn -0.000000 -0.050262 -0.998736
vn -0.282035 -0.054434 -0.957859
vn -0.282035 -0.054434 -0.957859
vn -0.282035 -0.054434 -0.957859
vn -0.282035 -0.054434 -0.957859
vn -0.852633 -0.083989 -0.515715
vn -0.852633 -0.083989 -0.515715
vn -0.852633 -0.083989 -0.515715
vn -0.852633 -0.083989 -0.515715
vn -0.852633 -0.083989 0.515715
vn -0.852633 -0.083989 0.515715
vn -0.852633 -0.083989 0.515715
vn -0.852633 -0.083989 0.515715
vn -0.282035 -0.054434 0.957859
vn -0.282035 -0.054434 0.957859
vn -0.282035 -0.054434 0.957859
vn -0.282035 -0.054434 0.957859
vn 0.000000 -0.050262 0.998736
vn 0.000000 -0.050262 0.998736
vn 0.000000 -0.050262 0.998736
vn 0.000000 -0.050262 0.998736
vn 0.282035 -0.054434 0.957859
vn 0.282035 -0.054434 0.957859
vn 0.282035 -0.054434 0.957859
vn 0.282035 -0.054434 0.957859
vn 0.852633 -0.083989 0.515716
vn 0.852633 -0.083989 0.515716
vn 0.852633 -0.083989 0.515716
vn 0.852633 -0.083989 0.515716
vn 0.852633 -0.083989 -0.515715
vn 0.852633 -0.083989 -0.515715
vn 0.852633 -0.083989 -0.515715
vn 0.852633 -0.083989 -0.515715
vn 0.305219 0.097662 -0.947261
vn 0.305219 0.097662 -0.947261
vn 0.305219 0.097662 -0.947261
vn 0.305219 0.097662 -0.947261
vn -0.000000 0.050262 -0.998736
vn -0.000000 0.050262 -0.998736
vn -0.000000 0.050262 -0.998736
vn -0.000000 0.050262 -0.998736
vn -0.305219 0.097662 -0.947261
vn -0.305219 0.097662 -0.947261
vn -0.305219 0.097662 -0.947261
vn -0.305219 0.097662 -0.947261
vn -0.836519 0.183042 -0.516461
vn -0.836519 0.183042 -0.516461
vn -0.836519 0.183042 -0.516461
vn -0.836519 0.183042 -0.516461
vn -0.836519 0.183041 0.516461
vn -0.836519 0.183041 0.516461
vn -0.836519 0.183041 0.516461
vn -0.836519 0.183041 0.516461
vn -0.305218 0.097662 0.947261
vn -0.305218 0.097662 0.947261
vn -0.305218 0.097662 0.947261
vn -0.305218 0.097662 0.947261
vn 0.000000 0.050262 0.998736
vn 0.000000 0.050262 0.998736
vn 0.000000 0.050262 0.998736
vn 0.000000 0.050262 0.998736
vn 0.305219 0.097662 0.947261
vn 0.305219 0.097662 0.947261
vn 0.305219 0.097662 0.947261
vn 0.305219 0.097662 0.947261
vn 0.836519 0.183042 0.516461
vn 0.836519 0.183042 0.516461
vn 0.836519 0.183042 0.516461
vn 0.836519 0.183042 0.516461
vn 0.836519 0.183042 -0.516461
vn 0.836519 0.183042 -0.516461
vn 0.836519 0.183042 -0.516461
vn 0.836519 0.183042 -0.516461
vn 0.349142 0.120011 -0.929353
vn 0.349142 0.120011 -0.929353
vn 0.349142 0.120011 -0.929353
vn 0.349142 0.120011 -0.929353
vn -0.000000 0.098200 -0.995167
vn -0.000000 0.098200 -0.995167
vn -0.000000 0.098200 -0.995167
vn -0.000000 0.098200 -0.995167
vn -0.349142 0.120011 -0.929353
vn -0.349142 0.120011 -0.929353
vn -0.349142 0.120011 -0.929353
vn -0.349142 0.120011 -0.929353
vn -0.832189 0.204391 -0.515447
vn -0.832189 0.204391 -0.515447
vn -0.832189 0.204391 -0.515447
vn -0.832189 0.204391 -0.515447
vn -0.832189 0.204391 0.515447
vn -0.832189 0.204391 0.515447
vn -0.832189 0.204391 0.515447
vn -0.832189 0.204391 0.515447
vn -0.349142 0.120011 0.929353
vn -0.349142 0.120011 0.929353
vn -0.349142 0.120011 0.929353
vn -0.349142 0.120011 0.929353
vn 0.000000 0.098199 0.995167
vn 0.000000 0.098199 0.995167
vn 0.000000 0.098199 0.995167
vn 0.000000 0.098199 0.995167
vn 0.349142 0.120010 0.929353
vn 0.349142 0.120010 0.929353
vn 0.349142 0.120010 0.929353
vn 0.349142 0.120010 0.929353
vn 0.832189 0.204391 0.515447
vn 0.832189 0.204391 0.515447
vn 0.832189 0.204391 0.515447
vn 0.832189 0.204391 0.515447
vn 0.832189 0.204391 -0.515447
vn 0.832189 0.204391 -0.515447
vn 0.832189 0.204391 -0.515447
vn 0.832189 0.204391 -0.515447
vn 0.341444 0.343598 -0.874847
vn 0.341444 0.343598 -0.874847
vn 0.341444 0.343598 -0.874847
vn 0.341444 0.343598 -0.874847
vn -0.000000 0.302824 -0.953046
vn -0.000000 0.302824 -0.953046
vn -0.000000 0.302824 -0.953046
vn -0.000000 0.302824 -0.953046
vn -0.341444 0.343598 -0.874846
vn -0.341444 0.343598 -0.874846
vn -0.341444 0.343598 -0.874846
vn -0.341444 0.343598 -0.874847
vn -0.755358 0.469782 -0.456880
vn -0.755358 0.469782 -0.456880
vn -0.755358 0.469782 -0.456880
vn -0.755358 0.469782 -0.456880
vn -0.755357 0.469782 0.456880
vn -0.755358 0.469783 0.456880
vn -0.755358 0.469783 0.456880
vn -0.755358 0.469783 0.456880
vn -0.341444 0.343598 0.874847
vn -0.341444 0.343598 0.874847
vn -0.341444 0.343598 0.874847
vn -0.341444 0.343598 0.874847
vn 0.000000 0.302825 0.953046
vn 0.000000 0.302825 0.953046
vn 0.000000 0.302825 0.953046
vn 0.000000 0.302825 0.953046
vn 0.341444 0.343598 0.874846
vn 0.341444 0.343598 0.874846
vn 0.341444 0.343598 0.874846
vn 0.341444 0.343598 0.874846
vn 0.755358 0.469782 0.456880
vn 0.755358 0.469782 0.456880
vn 0.755358 0.469782 0.456880
vn 0.755358 0.469782 0.456880
vn 0.755358 0.469782 -0.456880
vn 0.755358 0.469782 -0.456880
vn 0.755358 0.469782 -0.456880
vn 0.755358 0.469782 -0.456880
vn 0.295328 0.583270 -0.756688
vn 0.295328 0.583270 -0.756688
vn 0.295328 0.583270 -0.756688
vn 0.295328 0.583270 -0.756688
vn -0.000000 0.529148 -0.848530
vn -0.000000 0.529148 -0.848530
vn -0.000000 0.529148 -0.848530
vn -0.000000 0.529148 -0.848530
vn -0.295328 0.583271 -0.756688
vn -0.295328 0.583271 -0.756688
vn -0.295328 0.583271 -0.756688
vn -0.295328 0.583271 -0.756688
vn -0.591753 0.722301 -0.357924
vn -0.591753 0.722301 -0.357924
vn -0.591753 0.722301 -0.357924
vn -0.591753 0.722301 -0.357924
vn -0.591753 0.722301 0.357924
vn -0.591753 0.722301 0.357924
vn -0.591753 0.722301 0.357924
vn -0.591753 0.722301 0.357924
vn -0.295328 0.583270 0.756688
vn -0.295328 0.583270 0.756688
vn -0.295328 0.583270 0.756688
vn -0.295328 0.583270 0.756688
vn 0.000000 0.529149 0.848529
vn 0.000000 0.529149 0.848529
vn 0.000000 0.529149 0.848529
vn 0.000000 0.529149 0.848529
vn 0.295328 0.583271 0.756688
vn 0.295328 0.583271 0.756688
vn 0.295328 0.583271 0.756688
vn 0.295328 0.583271 0.756688
vn 0.591753 0.722301 0.357924
vn 0.591753 0.722301 0.357924
vn 0.591753 0.722301 0.357924
vn 0.591753 0.722301 0.357924
vn 0.591753 0.722301 -0.357924
vn 0.591753 0.722301 -0.357924
vn 0.591753 0.722301 -0.357924
vn 0.591753 0.722301 -0.357924
vn 0.090228 -0.968718 -0.231182
vn 0.090228 -0.968718 -0.231182
vn 0.090228 -0.968718 -0.231182
vn -0.000000 -0.959140 -0.282932
vn -0.000000 -0.959140 -0.282932
vn -0.000000 -0.959140 -0.282932
vn -0.090228 -0.968718 -0.231182
vn -0.090228 -0.968718 -0.231182
vn -0.090228 -0.968717 -0.231182
vn -0.148422 -0.984841 -0.089774
vn -0.148422 -0.984841 -0.089774
vn -0.148422 -0.984841 -0.089774
vn -0.148422 -0.984841 0.089773
vn -0.148422 -0.984841 0.089773
vn -0.148422 -0.984841 0.089773
vn -0.090228 -0.968718 0.231182
vn -0.090228 -0.968718 0.231182
vn -0.090228 -0.968718 0.231182
vn 0.000000 -0.959140 0.282932
vn 0.000000 -0.959140 0.282932
vn 0.000000 -0.959140 0.282932
vn 0.090228 -0.968718 0.231182
vn 0.090228 -0.968718 0.231182
vn 0.090228 -0.968718 0.231182
vn 0.148422 -0.984841 0.089774
vn 0.148422 -0.984841 0.089774
vn 0.148422 -0.984841 0.089774
vn 0.148422 -0.984841 -0.089773
vn 0.148422 -0.984841 -0.089773
vn 0.148422 -0.984841 -0.089773
vn 0.144439 0.917703 -0.370079
vn 0.144439 0.917703 -0.370079
vn 0.144439 0.917703 -0.370079
vn -0.000000 0.894976 -0.446115
vn -0.000000 0.894976 -0.446115
vn -0.000000 0.894976 -0.446115
vn -0.144439 0.917703 -0.370079
vn -0.144439 0.917703 -0.370079
vn -0.144439 0.917703 -0.370079
vn -0.244083 0.958450 -0.147637
vn -0.244083 0.958450 -0.147637
vn -0.244083 0.958450 -0.147637
vn -0.244083 0.958450 0.147637
vn -0.244083 0.958450 0.147637
vn -0.244083 0.958450 0.147637
vn -0.144439 0.917703 0.370079
vn -0.144439 0.917703 0.370079
vn -0.144439 0.917703 0.370079
vn 0.000000 0.894975 0.446117
vn 0.000000 0.894975 0.446117
vn 0.000000 0.894975 0.446117
vn 0.144439 0.917703 0.370079
vn 0.144439 0.917703 0.370079
vn 0.144439 0.917703 0.370079
vn 0.244083 0.958450 0.147637
vn 0.244083 0.958450 0.147637
vn 0.244084 0.958450 0.147637
vn 0.244083 0.958450 -0.147637
vn 0.244084 0.958450 -0.147637
vn 0.244083 0.958450 -0.147637
s off
g pSphere1
f 1/123/1 2/130/2 12/3/3 11/4/4
f 2/130/5 3/129/6 13/6/7 12/3/8
f 3/129/9 4/128/10 14/8/11 13/6/12
f 4/128/13 5/113/14 15/110/15 14/8/16
f 5/114/17 6/127/18 16/12/19 15/10/20
f 6/127/21 7/126/22 17/14/23 16/12/24
f 7/126/25 8/125/26 18/16/27 17/14/28
f 8/125/29 9/124/30 19/18/31 18/16/32
f 9/124/33 10/111/34 20/109/35 19/18/36
f 10/112/37 1/123/38 11/4/39 20/20/40
f 11/4/41 12/3/42 22/21/43 21/22/44
f 12/3/45 13/6/46 23/23/47 22/21/48
f 13/6/49 14/8/50 24/24/51 23/23/52
f 14/8/53 15/110/54 25/108/55 24/24/56
f 15/10/57 16/12/58 26/26/59 25/25/60
f 16/12/61 17/14/62 27/27/63 26/26/64
f 17/14/65 18/16/66 28/28/67 27/27/68
f 18/16/69 19/18/70 29/29/71 28/28/72
f 19/18/73 20/109/74 30/107/75 29/29/76
f 20/20/77 11/4/78 21/22/79 30/30/80
f 21/22/81 22/21/82 32/31/83 31/32/84
f 22/21/85 23/23/86 33/33/87 32/31/88
f 23/23/89 24/24/90 34/34/91 33/33/92
f 24/24/93 25/108/94 35/106/95 34/34/96
f 25/25/97 26/26/98 36/36/99 35/35/100
f 26/26/101 27/27/102 37/37/103 36/36/104
f 27/27/105 28/28/106 38/38/107 37/37/108
f 28/28/109 29/29/110 39/39/111 38/38/112
f 29/29/113 30/107/114 40/105/115 39/39/116
f 30/30/117 21/22/118 31/32/119 40/40/120
f 31/32/121 32/31/122 42/41/123 41/42/124
f 32/31/125 33/33/126 43/43/127 42/41/128
f 33/33/129 34/34/130 44/44/131 43/43/132
f 34/34/133 35/106/134 45/104/135 44/44/136
f 35/35/137 36/36/138 46/46/139 45/45/140
f 36/36/141 37/37/142 47/47/143 46/46/144
f 37/37/145 38/38/146 48/48/147 47/47/148
f 38/38/149 39/39/150 49/49/151 48/48/152
f 39/39/153 40/105/154 50/103/155 49/49/156
f 40/40/157 31/32/158 41/42/159 50/50/160
f 41/42/161 42/41/162 52/51/163 51/52/164
f 42/41/165 43/43/166 53/53/167 52/51/168
f 43/43/169 44/44/170 54/54/171 53/53/172
f 44/44/173 45/104/174 55/102/175 54/54/176
f 45/45/177 46/46/178 56/56/179 55/55/180
f 46/46/181 47/47/182 57/57/183 56/56/184
f 47/47/185 48/48/186 58/58/187 57/57/188
f 48/48/189 49/49/190 59/59/191 58/58/192
f 49/49/193 50/103/194 60/101/195 59/59/196
f 50/50/197 41/42/198 51/52/199 60/60/200
f 51/52/201 52/51/202 62/61/203 61/62/204
f 52/51/205 53/53/206 63/63/207 62/61/208
f 53/53/209 54/54/210 64/64/211 63/63/212
f 54/54/213 55/102/214 65/100/215 64/64/216
f 55/55/217 56/56/218 66/66/219 65/65/220
f 56/56/221 57/57/222 67/67/223 66/66/224
f 57/57/225 58/58/226 68/68/227 67/67/228
f 58/58/229 59/59/230 69/69/231 68/68/232
f 59/59/233 60/101/234 70/99/235 69/69/236
f 60/60/237 51/52/238 61/62/239 70/70/240
f 61/62/241 62/61/242 72/71/243 71/72/244
f 62/61/245 63/63/246 73/73/247 72/71/248
f 63/63/249 64/64/250 74/74/251 73/73/252
f 64/64/253 65/100/254 75/96/255 74/74/256
f 65/65/257 66/66/258 76/76/259 75/75/260
f 66/66/261 67/67/262 77/77/263 76/76/264
f 67/67/265 68/68/266 78/78/267 77/77/268
f 68/68/269 69/69/270 79/79/271 78/78/272
f 69/69/273 70/99/274 80/93/275 79/79/276
f 70/70/277 61/62/278 71/72/279 80/80/280
f 71/72/281 72/71/282 82/122/283 81/115/284
f 72/71/285 73/73/286 83/121/287 82/122/288
f 73/73/289 74/74/290 84/120/291 83/121/292
f 74/74/293 75/96/294 85/98/295 84/120/296
f 75/75/297 76/76/298 86/119/299 85/97/300
f 76/76/301 77/77/302 87/118/303 86/119/304
f 77/77/305 78/78/306 88/117/307 87/118/308
f 78/78/309 79/79/310 89/116/311 88/117/312
f 79/79/313 80/93/314 90/95/315 89/116/316
f 80/80/317 71/72/318 81/115/319 90/94/320
f 2/2/321 1/1/322 91/91/323
f 3/5/324 2/2/325 91/91/326
f 4/7/327 3/5/328 91/91/329
f 5/9/330 4/7/331 91/91/332
f 6/11/333 5/9/334 91/91/335
f 7/13/336 6/11/337 91/91/338
f 8/15/339 7/13/340 91/91/341
f 9/17/342 8/15/343 91/91/344
f 10/19/345 9/17/346 91/91/347
f 1/1/348 10/19/349 91/91/350
f 81/82/351 82/81/352 92/92/353
f 82/81/354 83/83/355 92/92/356
f 83/83/357 84/84/358 92/92/359
f 84/84/360 85/85/361 92/92/362
f 85/85/363 86/86/364 92/92/365
f 86/86/366 87/87/367 92/92/368
f 87/87/369 88/88/370 92/92/371
f 88/88/372 89/89/373 92/92/374
f 89/89/375 90/90/376 92/92/377
f 90/90/378 81/82/379 92/92/380
