# This file uses centimeters as units for non-parametric coordinates.

g default
v -7.782664 0.212498 7.430917
v 7.782664 0.212498 7.430917
v -7.782664 -0.053271 7.430917
v 7.782664 -0.053271 7.430917
v -7.782664 -0.053271 -7.430917
v 7.782664 -0.053271 -7.430917
v -7.782664 0.212498 -7.430917
v 7.782664 0.212498 -7.430917
vt 0.488748 0.009784
vt 0.962707 0.505771
vt 0.482741 0.505048
vt 0.962737 0.009851
vt 0.015286 0.504698
vt 0.015789 0.015236
vt 0.009766 0.510482
vt 0.500081 0.990178
vt 0.500140 0.505715
vt 0.488602 0.510524
vt 0.009923 0.009766
vt 0.962648 0.990234
vt 0.962648 0.494314
vt 0.500081 0.494229
vt 0.483232 0.015573
vt 0.500170 0.009766
vn 0.000000 0.000000 1.000000
vn 0.000000 0.000000 1.000000
vn 0.000000 0.000000 1.000000
vn 0.000000 0.000000 1.000000
vn 0.000000 -1.000000 0.000000
vn 0.000000 -1.000000 0.000000
vn 0.000000 -1.000000 0.000000
vn 0.000000 -1.000000 0.000000
vn 0.000000 0.000000 -1.000000
vn 0.000000 0.000000 -1.000000
vn 0.000000 0.000000 -1.000000
vn 0.000000 0.000000 -1.000000
vn 0.000000 1.000000 0.000000
vn 0.000000 1.000000 0.000000
vn 0.000000 1.000000 0.000000
vn 0.000000 1.000000 0.000000
vn 1.000000 0.000000 0.000000
vn 1.000000 0.000000 0.000000
vn 1.000000 0.000000 0.000000
vn 1.000000 0.000000 0.000000
vn -1.000000 0.000000 0.000000
vn -1.000000 0.000000 0.000000
vn -1.000000 0.000000 0.000000
vn -1.000000 0.000000 0.000000
s off
g pCube1
f 1/1/1 3/15/2 4/3/3 2/10/4
f 3/4/5 5/16/6 6/14/7 4/13/8
f 5/6/9 7/11/10 8/7/11 6/5/12
f 7/8/13 1/12/14 2/2/15 8/9/16
f 2/10/17 4/3/18 6/5/19 8/7/20
f 7/11/21 5/6/22 3/15/23 1/1/24
