# This file uses centimeters as units for non-parametric coordinates.

g default
v -3.290906 -0.026574 0.107962
v 3.290906 -0.026574 0.107962
v -3.290906 5.396376 0.107962
v 3.290906 5.396376 0.107962
v -3.290906 5.396376 -0.107962
v 3.290906 5.396376 -0.107962
v -3.290906 -0.026574 -0.107962
v 3.290906 -0.026574 -0.107962
v -3.290906 1.600311 0.107962
v -3.290906 1.600311 -0.107962
v 3.290906 1.600311 -0.107962
v 3.290906 1.600311 0.107962
v -3.290906 -0.026574 0.167945
v 3.290906 -0.026574 0.167945
v 3.290906 1.600311 0.167945
v -3.290906 1.600311 0.167945
v -3.290906 1.600311 -0.167945
v 3.290906 1.600311 -0.167945
v 3.290906 -0.026574 -0.167945
v -3.290906 -0.026574 -0.167945
v -3.290906 1.963636 0.107962
v -3.290906 1.963636 -0.107962
v 3.290906 1.963636 -0.107962
v 3.290906 1.963636 0.107962
v -3.290906 4.367186 -0.107962
v -3.290906 4.367186 0.107962
v 3.290906 4.367186 0.107962
v 3.290906 4.367186 -0.107962
v 1.697318 -0.026574 0.167945
v 1.697318 1.600311 0.167945
v 1.697318 1.600311 0.107962
v 1.697318 1.963636 0.107962
v 1.697318 4.367186 0.107962
v 1.697318 5.396377 0.107962
v 1.697318 5.396376 -0.107962
v 1.697318 4.367186 -0.107962
v 1.697318 1.963636 -0.107962
v 1.697318 1.600311 -0.107962
v 1.697318 1.600311 -0.167945
v 1.697318 -0.026574 -0.167945
v 1.697318 -0.026574 -0.107962
v 1.697318 -0.026574 0.107962
v -1.587253 -0.026574 0.167945
v -1.587253 1.600311 0.167945
v -1.587253 1.600311 0.107962
v -1.587253 1.963636 0.107962
v -1.587253 4.367186 0.107962
v -1.587253 5.396377 0.107962
v -1.587253 5.396376 -0.107962
v -1.587253 4.367186 -0.107962
v -1.587253 1.963636 -0.107962
v -1.587253 1.600311 -0.107962
v -1.587253 1.600311 -0.167945
v -1.587253 -0.026574 -0.167945
v -1.587253 -0.026574 -0.107962
v -1.587253 -0.026574 0.107962
vt 0.074190 0.624595
vt 0.208080 0.641362
vt 0.211323 0.506644
vt 0.744926 0.505382
vt 0.915807 0.409258
vt 0.889818 0.135268
vt 0.586112 0.135317
vt 0.873915 0.009767
vt 0.714158 0.013305
vt 0.864786 0.135267
vt 0.603277 0.142782
vt 0.744926 0.009781
vt 0.602641 0.026600
vt 0.135272 0.869612
vt 0.208556 0.636911
vt 0.009773 0.885529
vt 0.579988 0.616397
vt 0.494624 0.869581
vt 0.306409 0.494620
vt 0.292672 0.495923
vt 0.091511 0.510627
vt 0.306495 0.009767
vt 0.265161 0.011112
vt 0.899867 0.156385
vt 0.472444 0.662794
vt 0.732488 0.144520
vt 0.333174 0.494624
vt 0.352923 0.523583
vt 0.292118 0.136571
vt 0.461180 0.651576
vt 0.563495 0.510154
vt 0.864786 0.990231
vt 0.618299 0.515752
vt 0.864826 0.494620
vt 0.510318 0.009803
vt 0.088102 0.011385
vt 0.471575 0.846423
vt 0.088849 0.496237
vt 0.510233 0.494656
vt 0.100049 0.539495
vt 0.889808 0.494621
vt 0.461304 0.858649
vt 0.452558 0.508149
vt 0.864783 0.872838
vt 0.292491 0.378530
vt 0.732526 0.651759
vt 0.732721 0.858651
vt 0.889811 0.377229
vt 0.586069 0.377276
vt 0.721438 0.847450
vt 0.722193 0.663929
vt 0.732363 0.393630
vt 0.864813 0.377227
vt 0.603332 0.392058
vt 0.377232 0.869591
vt 0.454656 0.636529
vt 0.510296 0.135303
vt 0.333237 0.135272
vt 0.265354 0.136612
vt 0.088295 0.136885
vt 0.135274 0.885519
vt 0.915754 0.009773
vt 0.077522 0.621983
vt 0.598754 0.142392
vt 0.598809 0.392463
vt 0.744940 0.135281
vt 0.605657 0.029633
vt 0.727960 0.144886
vt 0.727840 0.393236
vt 0.306473 0.135267
vt 0.899864 0.129621
vt 0.716621 0.009766
vt 0.333195 0.377232
vt 0.873912 0.135268
vt 0.899900 0.409260
vt 0.586134 0.009816
vt 0.012479 0.137002
vt 0.012852 0.378961
vt 0.088668 0.378844
vt 0.211594 0.511122
vt 0.452380 0.512629
vt 0.744930 0.630882
vt 0.088338 0.507662
vt 0.864775 0.630878
vt 0.455258 0.640965
vt 0.510253 0.377263
vt 0.265726 0.378572
vt 0.377233 0.885498
vt 0.499534 0.539486
vt 0.615928 0.519355
vt 0.744968 0.377241
vt 0.725630 0.498898
vt 0.306430 0.377227
vt 0.873905 0.377228
vt 0.100048 0.523589
vt 0.013033 0.496354
vt 0.379688 0.523583
vt 0.560737 0.513417
vt 0.744937 0.872842
vt 0.583687 0.618622
vt 0.175865 0.539494
vt 0.352924 0.539489
vt 0.175864 0.523588
vt 0.265907 0.495964
vt 0.915797 0.333442
vt 0.889821 0.009767
vt 0.012286 0.011501
vt 0.899891 0.333444
vt 0.333259 0.009772
vt 0.728636 0.501943
vt 0.379688 0.539489
vt 0.915774 0.156383
vt 0.915770 0.129619
vt 0.291925 0.011071
vt 0.873901 0.494621
vt 0.586048 0.494669
vt 0.899848 0.009775
vt 0.009772 0.869623
vt 0.499533 0.523580
vt 0.494626 0.885487
vt 0.864771 0.009767
vt 0.744981 0.494633
vt 0.864771 0.505378
vt 0.744941 0.990234
vn 0.000000 0.000000 1.000000
vn 0.000000 0.000000 1.000000
vn 0.000000 0.000000 1.000000
vn 0.000000 0.000000 1.000000
vn -0.000000 1.000000 0.000000
vn -0.000000 1.000000 -0.000002
vn -0.000000 1.000000 -0.000002
vn -0.000000 1.000000 0.000000
vn 0.000000 0.000000 -1.000000
vn 0.000000 0.000000 -1.000000
vn 0.000000 0.000000 -1.000000
vn 0.000000 0.000000 -1.000000
vn 0.000000 -1.000000 0.000000
vn 0.000000 -1.000000 0.000000
vn 0.000000 -1.000000 0.000000
vn 0.000000 -1.000000 0.000000
vn 1.000000 0.000000 0.000000
vn 1.000000 0.000000 0.000000
vn 1.000000 0.000000 0.000000
vn 1.000000 0.000000 0.000000
vn -1.000000 0.000000 0.000000
vn -1.000000 0.000000 0.000000
vn -1.000000 0.000000 0.000000
vn -1.000000 0.000000 0.000000
vn -1.000000 0.000000 0.000000
vn -1.000000 0.000000 0.000000
vn -1.000000 0.000000 0.000000
vn -1.000000 0.000000 0.000000
vn 0.000000 0.000000 -1.000000
vn 0.000000 0.000000 -1.000000
vn 0.000000 0.000000 -1.000000
vn 0.000000 0.000000 -1.000000
vn 1.000000 0.000000 0.000000
vn 1.000000 0.000000 0.000000
vn 1.000000 0.000000 0.000000
vn 1.000000 0.000000 0.000000
vn 0.000000 -0.000000 1.000000
vn 0.000000 -0.000000 1.000000
vn 0.000000 -0.000000 1.000000
vn 0.000000 0.000000 1.000000
vn 0.000000 -1.000000 0.000000
vn 0.000000 -1.000000 0.000000
vn 0.000000 -1.000000 0.000000
vn 0.000000 -1.000000 0.000000
vn 1.000000 0.000000 0.000000
vn 1.000000 0.000000 0.000000
vn 1.000000 0.000000 0.000000
vn 1.000000 0.000000 0.000000
vn 0.000000 1.000000 0.000000
vn 0.000000 1.000000 0.000000
vn 0.000000 1.000000 0.000000
vn 0.000000 1.000000 0.000000
vn -1.000000 0.000000 0.000000
vn -1.000000 0.000000 0.000000
vn -1.000000 0.000000 0.000000
vn -1.000000 0.000000 0.000000
vn 0.000000 1.000000 0.000000
vn 0.000000 1.000000 0.000000
vn 0.000000 1.000000 0.000000
vn 0.000000 1.000000 0.000000
vn 1.000000 0.000000 0.000000
vn 1.000000 0.000000 0.000000
vn 1.000000 0.000000 0.000000
vn 1.000000 0.000000 0.000000
vn 0.000000 -1.000000 0.000000
vn 0.000000 -1.000000 0.000000
vn 0.000000 -1.000000 0.000000
vn 0.000000 -1.000000 0.000000
vn -1.000000 0.000000 0.000000
vn -1.000000 0.000000 0.000000
vn -1.000000 0.000000 0.000000
vn -1.000000 0.000000 0.000000
vn -1.000000 0.000000 0.000000
vn -1.000000 0.000000 0.000000
vn -1.000000 0.000000 0.000000
vn -1.000000 0.000000 0.000000
vn 0.000000 0.000000 -1.000000
vn 0.000000 0.000000 -1.000000
vn 0.000000 0.000000 -1.000000
vn 0.000000 0.000000 -1.000000
vn 1.000000 0.000000 0.000000
vn 1.000000 0.000000 0.000000
vn 1.000000 0.000000 0.000000
vn 1.000000 0.000000 0.000000
vn 0.000000 0.000000 1.000000
vn 0.000000 0.000000 1.000000
vn 0.000000 0.000000 1.000000
vn 0.000000 0.000000 1.000000
vn 0.000000 0.000000 1.000000
vn 0.000000 0.000000 1.000000
vn -0.000000 0.000000 1.000000
vn -0.000000 0.000000 1.000000
vn -0.000000 1.000000 0.000000
vn 0.000000 1.000000 0.000000
vn 0.000000 1.000000 0.000000
vn -0.000000 1.000000 0.000000
vn -0.000000 -0.000000 1.000000
vn -0.000000 -0.000000 1.000000
vn -0.000000 0.000000 1.000000
vn -0.000000 0.000000 1.000000
vn 0.000000 0.000000 1.000000
vn 0.000000 0.000000 1.000000
vn 0.000000 0.000000 1.000000
vn 0.000000 0.000000 1.000000
vn 0.000000 1.000000 -0.000003
vn 0.000000 1.000000 -0.000003
vn 0.000000 1.000000 -0.000003
vn 0.000000 1.000000 -0.000003
vn 0.000000 0.000000 -1.000000
vn 0.000000 0.000000 -1.000000
vn 0.000000 0.000000 -1.000000
vn 0.000000 0.000000 -1.000000
vn 0.000000 0.000000 -1.000000
vn -0.000000 0.000000 -1.000000
vn 0.000000 0.000000 -1.000000
vn -0.000000 0.000000 -1.000000
vn 0.000000 1.000000 0.000000
vn 0.000000 1.000000 0.000000
vn -0.000000 1.000000 0.000000
vn -0.000000 1.000000 0.000000
vn 0.000000 0.000000 -1.000000
vn 0.000000 0.000000 -1.000000
vn 0.000000 0.000000 -1.000000
vn 0.000000 0.000000 -1.000000
vn 0.000000 -1.000000 0.000000
vn 0.000000 -1.000000 0.000000
vn 0.000000 -1.000000 0.000000
vn 0.000000 -1.000000 0.000000
vn 0.000000 -1.000000 0.000000
vn 0.000000 -1.000000 0.000000
vn 0.000000 -1.000000 0.000000
vn 0.000000 -1.000000 0.000000
vn 0.000000 -1.000000 0.000000
vn 0.000000 -1.000000 0.000000
vn 0.000000 -1.000000 0.000000
vn 0.000000 -1.000000 0.000000
vn 0.000000 1.000000 0.000001
vn 0.000000 1.000000 0.000001
vn 0.000000 1.000000 0.000001
vn 0.000000 1.000000 0.000001
vn -1.000000 0.000000 0.000000
vn -1.000000 0.000000 0.000000
vn -1.000000 0.000000 0.000000
vn -1.000000 0.000000 0.000000
vn 0.000000 -1.000000 0.000000
vn 0.000000 -1.000000 0.000000
vn 0.000000 -1.000000 0.000000
vn 0.000000 -1.000000 0.000000
vn 1.000000 0.000000 0.000000
vn 1.000000 0.000000 0.000000
vn 1.000000 0.000000 0.000000
vn 1.000000 0.000000 0.000000
s 1
g Wall_1:pCube1
f 13/123/1 43/84/2 44/82/3 16/4/4
s 2
f 3/106/5 48/6/6 49/74/7 5/8/8
s 3
f 17/121/9 53/10/10 54/66/11 20/12/12
s 4
f 7/118/13 55/14/14 56/61/15 1/16/16
s off
f 2/119/17 8/89/18 11/111/19 12/97/20
f 7/117/21 1/62/22 9/113/23 10/71/24
s 5
f 10/71/25 9/113/26 21/112/27 22/24/28
s 6
f 22/109/29 51/58/30 52/70/31 10/22/32
s 7
f 12/97/33 11/111/34 23/102/35 24/28/36
s 8
f 9/114/37 45/29/38 46/59/39 21/23/40
s 9
f 1/63/41 56/15/42 43/2/43 13/1/44
s off
f 2/17/45 12/98/46 15/31/47 14/100/48
s 10
f 44/3/49 45/80/50 9/21/51 16/83/52
s off
f 9/21/53 1/63/54 13/1/55 16/83/56
s 11
f 10/72/57 52/26/58 53/68/59 17/9/60
s off
f 11/110/61 8/90/62 19/33/63 18/92/64
s 12
f 54/11/65 55/64/66 7/13/67 20/67/68
s off
f 7/13/69 10/72/70 17/9/71 20/67/72
s 5
f 25/108/73 26/105/74 3/5/75 5/75/76
s 6
f 5/76/77 49/7/78 50/57/79 25/35/80
s 7
f 27/103/81 28/101/82 6/40/83 4/95/84
s 8
f 26/36/85 47/60/86 48/77/87 3/107/88
s 5
f 22/24/28 21/112/27 26/105/74 25/108/73
s 8
f 21/23/40 46/59/39 47/60/86 26/36/85
s 7
f 24/28/36 23/102/35 28/101/82 27/103/81
s 6
f 25/35/80 50/57/79 51/58/30 22/109/29
s 1
f 30/99/89 29/44/90 14/32/91 15/124/92
s 10
f 12/98/93 31/81/94 30/43/95 15/31/96
s 8
f 32/87/97 31/45/98 12/20/99 24/104/100
f 33/79/101 32/87/97 24/104/100 27/38/102
f 34/78/103 33/79/101 27/38/102 4/96/104
s 2
f 35/94/105 34/48/106 4/41/107 6/115/108
s 6
f 36/86/109 35/49/110 6/116/111 28/39/112
f 37/73/113 36/86/109 28/39/112 23/27/114
f 38/93/115 37/73/113 23/27/114 11/19/116
s 11
f 39/69/117 38/52/118 11/110/119 18/92/120
s 3
f 40/91/121 39/53/122 18/34/123 19/122/124
s 12
f 8/90/125 41/65/126 40/54/127 19/33/128
s 4
f 42/88/129 41/55/130 8/18/131 2/120/132
s 9
f 29/85/133 42/56/134 2/17/135 14/100/136
s 1
f 44/82/3 43/84/2 29/44/90 30/99/89
s 10
f 30/43/95 31/81/94 45/80/50 44/3/49
s 8
f 46/59/39 45/29/38 31/45/98 32/87/97
f 48/77/87 47/60/86 33/79/101 34/78/103
s 2
f 49/74/7 48/6/6 34/48/106 35/94/105
s 6
f 50/57/79 49/7/78 35/49/110 36/86/109
f 52/70/31 51/58/30 37/73/113 38/93/115
s 11
f 53/68/59 52/26/58 38/52/118 39/69/117
s 3
f 54/66/11 53/10/10 39/53/122 40/91/121
s 12
f 40/54/127 41/65/126 55/64/66 54/11/65
s 4
f 56/61/15 55/14/14 41/55/130 42/88/129
s 9
f 43/2/43 56/15/42 42/56/134 29/85/133
s off
f 46/30/137 32/46/138 37/51/139 51/25/140
f 32/46/141 33/47/142 36/50/143 37/51/144
f 33/47/145 47/42/146 50/37/147 36/50/148
f 47/42/149 46/30/150 51/25/151 50/37/152
