# This file uses centimeters as units for non-parametric coordinates.

g default
v -3.290906 -0.026574 0.107962
v 3.290906 -0.026574 0.107962
v -3.290906 5.396376 0.107962
v 3.290906 5.396376 0.107962
v -3.290906 5.396376 -0.107962
v 3.290906 5.396376 -0.107962
v -3.290906 -0.026574 -0.107962
v 3.290906 -0.026574 -0.107962
v -3.290906 1.600311 0.107962
v -3.290906 1.600311 -0.107962
v 3.290906 1.600311 -0.107962
v 3.290906 1.600311 0.107962
v -3.290906 -0.026574 0.167945
v 3.290906 -0.026574 0.167945
v 3.290906 1.600311 0.167945
v -3.290906 1.600311 0.167945
v -3.290906 1.600311 -0.167945
v 3.290906 1.600311 -0.167945
v 3.290906 -0.026574 -0.167945
v -3.290906 -0.026574 -0.167945
vt 0.976661 0.009766
vt 0.713168 0.501102
vt 0.591623 0.500908
vt 0.591820 0.012224
vt 0.616190 0.422201
vt 0.009782 0.494917
vt 0.547274 0.529667
vt 0.578756 0.009807
vt 0.846427 0.009783
vt 0.012193 0.630191
vt 0.012394 0.508645
vt 0.501073 0.508854
vt 0.503479 0.505215
vt 0.009790 0.505152
vt 0.716807 0.503508
vt 0.716858 0.009815
vt 0.009785 0.633829
vt 0.588131 0.503513
vt 0.588180 0.009818
vt 0.503486 0.633890
vt 0.500880 0.630399
vt 0.726510 0.009766
vt 0.726439 0.494908
vt 0.846356 0.494925
vt 0.713365 0.012418
vt 0.856744 0.009770
vt 0.856763 0.494913
vt 0.976680 0.494908
vt 0.289588 0.494962
vt 0.827077 0.513704
vt 0.616143 0.142395
vt 0.289665 0.009819
vt 0.298950 0.009766
vt 0.600227 0.142398
vt 0.827080 0.529619
vt 0.298878 0.494908
vt 0.974460 0.990234
vt 0.547271 0.513751
vt 0.946901 0.643935
vt 0.946997 0.529599
vt 0.600207 0.022481
vt 0.461759 0.643989
vt 0.974552 0.505092
vt 0.009859 0.009775
vt 0.946994 0.513683
vt 0.946903 0.659851
vt 0.461761 0.659905
vt 0.616123 0.022478
vt 0.958544 0.990231
vt 0.578685 0.494949
vt 0.958636 0.505089
vt 0.600274 0.422204
vn 0.000000 0.000000 1.000000
vn 0.000000 0.000000 1.000000
vn 0.000000 0.000000 1.000000
vn 0.000000 0.000000 1.000000
vn 0.000000 1.000000 0.000000
vn 0.000000 1.000000 0.000000
vn 0.000000 1.000000 0.000000
vn 0.000000 1.000000 0.000000
vn 0.000000 0.000000 -1.000000
vn 0.000000 0.000000 -1.000000
vn 0.000000 0.000000 -1.000000
vn 0.000000 0.000000 -1.000000
vn 0.000000 -1.000000 0.000000
vn 0.000000 -1.000000 0.000000
vn 0.000000 -1.000000 0.000000
vn 0.000000 -1.000000 0.000000
vn 1.000000 0.000000 0.000000
vn 1.000000 0.000000 0.000000
vn 1.000000 0.000000 0.000000
vn 1.000000 0.000000 0.000000
vn -1.000000 0.000000 0.000000
vn -1.000000 0.000000 0.000000
vn -1.000000 0.000000 0.000000
vn -1.000000 0.000000 0.000000
vn -1.000000 0.000000 0.000000
vn -1.000000 0.000000 0.000000
vn 0.000000 -0.000000 -1.000000
vn 0.000000 -0.000000 -1.000000
vn 0.000000 -0.000000 -1.000000
vn 0.000000 -0.000000 -1.000000
vn 1.000000 0.000000 0.000000
vn 1.000000 0.000000 0.000000
vn 0.000000 -0.000000 1.000000
vn 0.000000 -0.000000 1.000000
vn 0.000000 -0.000000 1.000000
vn 0.000000 -0.000000 1.000000
vn 0.000000 -1.000000 0.000000
vn 0.000000 -1.000000 0.000000
vn 0.000000 -1.000000 0.000000
vn 0.000000 -1.000000 0.000000
vn 1.000000 0.000000 0.000000
vn 1.000000 0.000000 0.000000
vn 1.000000 0.000000 0.000000
vn 1.000000 0.000000 0.000000
vn 0.000000 1.000000 0.000000
vn 0.000000 1.000000 0.000000
vn 0.000000 1.000000 0.000000
vn 0.000000 1.000000 0.000000
vn -1.000000 0.000000 0.000000
vn -1.000000 0.000000 0.000000
vn -1.000000 0.000000 0.000000
vn -1.000000 0.000000 0.000000
vn 0.000000 1.000000 0.000000
vn 0.000000 1.000000 0.000000
vn 0.000000 1.000000 0.000000
vn 0.000000 1.000000 0.000000
vn 1.000000 0.000000 0.000000
vn 1.000000 0.000000 0.000000
vn 1.000000 0.000000 0.000000
vn 1.000000 0.000000 0.000000
vn 0.000000 -1.000000 0.000000
vn 0.000000 -1.000000 0.000000
vn 0.000000 -1.000000 0.000000
vn 0.000000 -1.000000 0.000000
vn -1.000000 0.000000 0.000000
vn -1.000000 0.000000 0.000000
vn -1.000000 0.000000 0.000000
vn -1.000000 0.000000 0.000000
s off
g pCube1
f 13/1/1 14/28/2 15/27/3 16/26/4
f 3/43/5 4/37/6 6/49/7 5/51/8
f 17/9/9 18/24/10 19/23/11 20/22/12
f 7/42/13 8/39/14 2/46/15 1/47/16
s 1
f 2/45/17 8/40/18 11/35/19 12/30/20
s 2
f 7/41/21 1/48/22 9/31/23 10/34/24
f 10/34/24 9/31/23 3/5/25 5/52/26
s off
f 5/8/27 6/50/28 11/36/29 10/33/30
s 1
f 12/30/20 11/35/19 6/7/31 4/38/32
s off
f 9/32/33 12/29/34 4/6/35 3/44/36
f 1/16/37 2/15/38 14/2/39 13/25/40
f 2/15/41 12/18/42 15/3/43 14/2/44
f 12/18/45 9/19/46 16/4/47 15/3/48
f 9/19/49 1/16/50 13/25/51 16/4/52
f 10/20/53 11/17/54 18/10/55 17/21/56
f 11/17/57 8/14/58 19/11/59 18/10/60
f 8/14/61 7/13/62 20/12/63 19/11/64
f 7/13/65 10/20/66 17/21/67 20/12/68
